<svg xmlns="http://www.w3.org/2000/svg" xmlns:xlink="http://www.w3.org/1999/xlink" viewBox="0,0,256,256" width="72px" height="72px" fill-rule="nonzero"><g fill="none" fill-rule="nonzero" stroke="none" stroke-width="1" stroke-linecap="butt" stroke-linejoin="miter" stroke-miterlimit="10" stroke-dasharray="" stroke-dashoffset="0" font-family="none" font-weight="none" font-size="none" text-anchor="none" style="mix-blend-mode: normal"><g transform="scale(3.87879,3.87879)"><path d="M28.36,33.7v17.72c0,3.13 2.54,5.67 5.67,5.67h10.53l7.72,5.59c1.19,0.86 2.86,0.01 2.86,-1.46v-4.13h2.26c3.13,0 5.67,-2.54 5.67,-5.67v-17.72c0,-3.13 -2.54,-5.67 -5.67,-5.67h-23.37c-3.13,0 -5.67,2.54 -5.67,5.67z" fill="#e9b44c"></path><path d="M28.36,49.91v1.52c0,3.13 2.54,5.67 5.67,5.67h10.53l7.72,5.59c1.2,0.86 2.86,0.01 2.86,-1.46v-4.13h2.26c3.13,0 5.67,-2.54 5.67,-5.67v-17.73c0,-3.13 -2.54,-5.67 -5.67,-5.67h-3.34c3.09,2.14 4.86,4.63 4.86,7.28c0,8.09 -7.38,14.66 -27.65,14.66c-0.98,-0.01 -1.94,-0.02 -2.91,-0.06z" fill="#b48a37"></path><path d="M53.34,63.74c-0.52,0 -1.03,-0.16 -1.47,-0.48l-7.54,-5.46h-10.3c-3.52,0 -6.38,-2.86 -6.38,-6.38v-17.72c0,-3.52 2.86,-6.38 6.38,-6.38h23.37c3.52,0 6.38,2.86 6.38,6.38v17.72c0,3.52 -2.86,6.38 -6.38,6.38h-1.55v3.42c0,0.95 -0.52,1.81 -1.37,2.24c-0.36,0.19 -0.75,0.28 -1.14,0.28zM34.03,28.74c-2.73,0 -4.96,2.23 -4.96,4.96v17.72c0,2.73 2.22,4.96 4.96,4.96h10.53c0.15,0 0.29,0.05 0.42,0.13l7.72,5.59c0.34,0.25 0.77,0.28 1.14,0.09c0.37,-0.19 0.6,-0.55 0.6,-0.97v-4.13c0,-0.39 0.32,-0.71 0.71,-0.71h2.26c2.73,0 4.96,-2.23 4.96,-4.96v-17.72c0,-2.73 -2.23,-4.96 -4.96,-4.96z" fill="#434a54"></path><path d="M35.51,42.92c0,5.47 4.43,9.91 9.91,9.91c5.48,0 9.91,-4.44 9.91,-9.91c0,-5.47 -4.43,-9.91 -9.91,-9.91c-5.48,0 -9.91,4.44 -9.91,9.91z" fill="#f5f5fa"></path><path d="M35.58,44.09c0.58,4.92 4.76,8.74 9.84,8.74c5.47,0 9.91,-4.44 9.91,-9.92c0,-5.38 -4.29,-9.76 -9.64,-9.9c0.04,0.38 0.07,0.77 0.07,1.17c0,5.47 -4.44,9.92 -9.91,9.92c-0.08,-0.01 -0.18,-0.01 -0.27,-0.01z" fill="#e5e8ec"></path><path d="M45.42,53.54c-5.86,0 -10.62,-4.77 -10.62,-10.62c0,-5.86 4.76,-10.62 10.62,-10.62c5.86,0 10.62,4.76 10.62,10.62c0,5.86 -4.76,10.62 -10.62,10.62zM45.42,33.72c-5.07,0 -9.2,4.13 -9.2,9.2c0,5.08 4.13,9.21 9.2,9.21c5.07,0 9.2,-4.13 9.2,-9.21c0,-5.08 -4.12,-9.2 -9.2,-9.2z" fill="#434a54"></path><path d="M37.64,32.3v-17.72c0,-3.13 -2.54,-5.67 -5.67,-5.67h-10.53l-7.72,-5.59c-1.19,-0.86 -2.86,-0.01 -2.86,1.46v4.13h-2.26c-3.13,0 -5.67,2.54 -5.67,5.67v17.72c0,3.13 2.54,5.67 5.67,5.67h23.37c3.13,0 5.67,-2.54 5.67,-5.67z" fill="#426d94"></path><path d="M37.63,29.84v2.46c0,3.13 -2.54,5.67 -5.67,5.67h-23.36c-3.13,0 -5.67,-2.54 -5.67,-5.67v-17.73c0,-1.76 0.8,-3.33 2.06,-4.38c0.96,12.07 11.06,21.56 23.37,21.56c3.29,0 6.43,-0.68 9.27,-1.91z" fill="#415d8b"></path><path d="M31.97,38.68h-23.37c-3.52,0 -6.38,-2.86 -6.38,-6.38v-17.72c0,-3.52 2.86,-6.38 6.38,-6.38h1.55v-3.42c0,-0.95 0.52,-1.81 1.37,-2.24c0.84,-0.43 1.85,-0.35 2.62,0.2l7.54,5.46h10.3c3.52,0 6.38,2.86 6.38,6.38v17.72c-0.01,3.52 -2.88,6.38 -6.39,6.38zM8.6,9.62c-2.73,0 -4.96,2.23 -4.96,4.96v17.72c0,2.73 2.22,4.96 4.96,4.96h23.37c2.73,0 4.96,-2.23 4.96,-4.96v-17.72c0,-2.73 -2.22,-4.96 -4.96,-4.96h-10.53c-0.15,0 -0.29,-0.05 -0.42,-0.13l-7.72,-5.6c-0.34,-0.25 -0.77,-0.28 -1.14,-0.09c-0.37,0.19 -0.6,0.55 -0.6,0.97v4.13c0,0.39 -0.32,0.71 -0.71,0.71h-2.25z" fill="#434a54"></path><g><path d="M10.67,23.08c0,5.47 4.43,9.91 9.91,9.91c5.48,0 9.91,-4.44 9.91,-9.91c0,-5.47 -4.43,-9.91 -9.91,-9.91c-5.48,0 -9.91,4.44 -9.91,9.91z" fill="#f5f5fa"></path><path d="M10.73,24.25c0.58,4.92 4.76,8.74 9.84,8.74c5.47,0 9.91,-4.44 9.91,-9.92c0,-5.38 -4.29,-9.76 -9.64,-9.9c0.04,0.38 0.07,0.77 0.07,1.17c0,5.47 -4.44,9.92 -9.91,9.92c-0.08,-0.01 -0.18,-0.01 -0.27,-0.01z" fill="#e5e8ec"></path><path d="M20.58,33.7c-5.86,0 -10.62,-4.77 -10.62,-10.62c0,-5.86 4.76,-10.62 10.62,-10.62c5.86,0 10.62,4.76 10.62,10.62c0,5.86 -4.77,10.62 -10.62,10.62zM20.58,13.88c-5.07,0 -9.2,4.13 -9.2,9.2c0,5.08 4.13,9.21 9.2,9.21c5.07,0 9.2,-4.13 9.2,-9.21c0,-5.07 -4.13,-9.2 -9.2,-9.2z" fill="#434a54"></path></g><g fill="#434a54"><path d="M23.51,27.59c-0.39,0 -0.71,-0.32 -0.71,-0.71v-5.98c0,-1.23 -1,-2.23 -2.23,-2.23c-1.23,0 -2.23,1 -2.23,2.23v5.99c0,0.39 -0.32,0.71 -0.71,0.71c-0.39,0 -0.71,-0.32 -0.71,-0.71v-5.99c0,-2.01 1.64,-3.65 3.65,-3.65c2.01,0 3.65,1.64 3.65,3.65v5.99c0,0.38 -0.32,0.7 -0.71,0.7z"></path><path d="M23.51,23.6h-5.87c-0.39,0 -0.71,-0.32 -0.71,-0.71c0,-0.39 0.32,-0.71 0.71,-0.71h5.87c0.39,0 0.71,0.32 0.71,0.71c0,0.39 -0.32,0.71 -0.71,0.71z"></path></g><g fill="#434a54"><path d="M46.13,43.63h-3.09c-0.39,0 -0.71,-0.32 -0.71,-0.71v-3.77c0,-0.81 0.66,-1.47 1.47,-1.47h2.33c1.64,0 2.98,1.34 2.98,2.98c0,1.64 -1.34,2.97 -2.98,2.97zM43.76,42.21h2.37c0.86,0 1.56,-0.7 1.56,-1.56c0,-0.86 -0.7,-1.56 -1.56,-1.56h-2.33z"></path><path d="M46.13,48.16h-2.33c-0.81,0 -1.47,-0.66 -1.47,-1.47v-3.77c0,-0.39 0.32,-0.71 0.71,-0.71h3.09c1.64,0 2.98,1.33 2.98,2.98c0,1.65 -1.34,2.97 -2.98,2.97zM43.75,43.63v3.06l2.38,0.05c0.86,0 1.56,-0.7 1.56,-1.56c0,-0.86 -0.7,-1.56 -1.56,-1.56h-2.38z"></path></g></g></g></svg>