<svg xmlns="http://www.w3.org/2000/svg" xmlns:xlink="http://www.w3.org/1999/xlink" viewBox="0,0,256,256" width="72px" height="72px" fill-rule="nonzero"><g fill="none" fill-rule="nonzero" stroke="none" stroke-width="1" stroke-linecap="butt" stroke-linejoin="miter" stroke-miterlimit="10" stroke-dasharray="" stroke-dashoffset="0" font-family="none" font-weight="none" font-size="none" text-anchor="none" style="mix-blend-mode: normal"><g><path d="M20.085,184.744c-3.203,1.64 -4.469,5.566 -2.829,8.768c1.153,2.252 3.436,3.547 5.803,3.547c0.999,0 2.014,-0.231 2.965,-0.718l195.632,-100.178l-6.893,21.22c-1.111,3.422 0.762,7.097 4.184,8.209c0.669,0.218 1.348,0.32 2.014,0.32c2.746,0 5.301,-1.75 6.196,-4.504l11.729,-36.11c1.111,-3.422 -0.762,-7.097 -4.184,-8.208l-36.11,-11.729c-3.424,-1.114 -7.097,0.762 -8.21,4.184c-1.111,3.422 0.762,7.097 4.184,8.209l21.084,6.848z" fill="#4f46e5"></path><path d="M23.06,198.559c-3.025,0 -5.761,-1.672 -7.139,-4.363c-2.014,-3.933 -0.453,-8.772 3.48,-10.787v0l192.35,-98.497l-17.649,-5.732c-4.202,-1.366 -6.511,-5.896 -5.147,-10.099c0.663,-2.037 2.077,-3.694 3.984,-4.666c1.908,-0.972 4.08,-1.144 6.117,-0.481l36.109,11.729c4.203,1.365 6.512,5.896 5.147,10.099l-11.729,36.11c-1.077,3.314 -4.14,5.541 -7.622,5.541c-0.841,0 -1.675,-0.133 -2.479,-0.395c-4.202,-1.365 -6.51,-5.895 -5.146,-10.098l5.771,-17.766l-192.4,98.522c-1.126,0.578 -2.388,0.883 -3.647,0.883zM20.769,186.079c-2.461,1.261 -3.438,4.289 -2.178,6.75c0.862,1.684 2.574,2.73 4.468,2.73c0.797,0 1.564,-0.186 2.281,-0.553l195.633,-100.177c0.54,-0.277 1.195,-0.2 1.657,0.193c0.462,0.394 0.641,1.027 0.454,1.605l-6.893,21.22c-0.854,2.63 0.591,5.464 3.22,6.318c0.505,0.165 1.026,0.248 1.551,0.248c2.179,0 4.095,-1.394 4.769,-3.468l11.729,-36.11c0.854,-2.63 -0.59,-5.464 -3.22,-6.318l-36.11,-11.729c-1.275,-0.414 -2.634,-0.309 -3.827,0.3c-1.193,0.608 -2.079,1.646 -2.494,2.92c-0.853,2.629 0.592,5.464 3.221,6.318l21.084,6.848c0.577,0.188 0.984,0.703 1.032,1.308c0.048,0.604 -0.272,1.178 -0.812,1.454l-195.565,100.143z" fill="#3a312a"></path><path d="M16.419,93.691v13.948c0,4.629 3.756,8.386 8.391,8.386h92.575c4.634,0 8.39,-3.757 8.39,-8.386v-63.893c0,-4.634 -3.756,-8.39 -8.39,-8.39h-92.575c-4.634,0 -8.391,3.756 -8.391,8.39v36.612z" fill="#e9b44c"></path><path d="M117.385,117.524h-92.575c-5.454,0 -9.891,-4.435 -9.891,-9.885v-13.948c0,-0.829 0.671,-1.5 1.5,-1.5c0.829,0 1.5,0.671 1.5,1.5v13.948c0,3.796 3.091,6.885 6.891,6.885h92.575c3.799,0 6.89,-3.089 6.89,-6.885v-63.893c0,-3.799 -3.091,-6.89 -6.89,-6.89h-92.575c-3.799,0 -6.891,3.091 -6.891,6.89v36.612c0,0.829 -0.671,1.5 -1.5,1.5c-0.829,0 -1.5,-0.671 -1.5,-1.5v-36.612c0,-5.454 4.437,-9.89 9.891,-9.89h92.575c5.454,0 9.89,4.437 9.89,9.89v63.893c0,5.451 -4.436,9.885 -9.89,9.885z" fill="#3a312a"></path><path d="M88.119,16.726c3.864,0 7.008,3.143 7.008,7.007v11.622h-7.847v-10.783h-32.365v10.784h-7.846v-11.622c0,-3.864 3.143,-7.007 7.008,-7.007h34.042z" fill="#e9b44c"></path><path d="M95.127,36.856h-7.847c-0.829,0 -1.5,-0.671 -1.5,-1.5v-9.284h-29.365v9.284c0,0.829 -0.671,1.5 -1.5,1.5h-7.846c-0.829,0 -1.5,-0.671 -1.5,-1.5v-11.622c0,-4.691 3.816,-8.508 8.507,-8.508h34.043c4.691,0 8.507,3.816 8.507,8.508v11.622c0.001,0.829 -0.671,1.5 -1.499,1.5zM88.78,33.856h4.846v-10.122c0,-3.037 -2.471,-5.508 -5.507,-5.508h-34.043c-3.037,0 -5.507,2.471 -5.507,5.508v10.122h4.846v-9.284c0,-0.829 0.671,-1.5 1.5,-1.5h32.365c0.829,0 1.5,0.671 1.5,1.5z" fill="#3a312a"></path><path d="M16.419,57.683v-13.937c0,-4.634 3.757,-8.39 8.391,-8.39h92.575c4.634,0 8.39,3.757 8.39,8.39v13.937l-48.298,21.351c-4.063,1.796 -8.695,1.796 -12.759,0z" fill="#e9b44c"></path><path d="M71.098,81.878c-2.383,0 -4.766,-0.491 -6.986,-1.472l-48.299,-21.351c-0.543,-0.24 -0.894,-0.778 -0.894,-1.372v-13.937c0,-5.454 4.437,-9.89 9.891,-9.89h92.575c5.454,0 9.89,4.437 9.89,9.89v13.937c0,0.594 -0.351,1.132 -0.894,1.372l-48.297,21.351c-2.22,0.981 -4.604,1.472 -6.986,1.472zM17.919,56.706l47.405,20.956c3.669,1.622 7.877,1.622 11.546,0l47.405,-20.956v-12.96c0,-3.799 -3.091,-6.89 -6.89,-6.89h-92.575c-3.799,0 -6.891,3.091 -6.891,6.89z" fill="#3a312a"></path><path d="M66.439,68.369c0,2.573 2.086,4.659 4.659,4.659c2.573,0 4.659,-2.086 4.659,-4.659c0,-2.573 -2.086,-4.659 -4.659,-4.659c-2.573,0 -4.659,2.086 -4.659,4.659z" fill="#3a312a"></path><path d="M104.712,54.883h3.878c1.637,0 2.965,1.327 2.965,2.964v16.383c0,1.638 -1.327,2.965 -2.965,2.965h-3.878c-1.637,0 -2.965,-1.327 -2.965,-2.965v-16.382c0,-1.638 1.327,-2.965 2.965,-2.965z" fill="#4f46e5"></path><path d="M108.59,78.696h-3.878c-2.461,0 -4.464,-2.003 -4.464,-4.465v-16.383c0,-2.461 2.003,-4.464 4.464,-4.464h3.878c2.462,0 4.465,2.003 4.465,4.464v16.383c0,2.462 -2.003,4.465 -4.465,4.465zM104.711,56.383c-0.808,0 -1.464,0.657 -1.464,1.464v16.383c0,0.808 0.657,1.465 1.464,1.465h3.878c0.808,0 1.465,-0.657 1.465,-1.465v-16.382c0,-0.808 -0.657,-1.464 -1.465,-1.464h-3.878z" fill="#3a312a"></path><path d="M33.605,54.883h3.878c1.638,0 2.965,1.327 2.965,2.964v16.383c0,1.638 -1.327,2.965 -2.965,2.965h-3.878c-1.637,0 -2.965,-1.327 -2.965,-2.965v-16.382c0.001,-1.638 1.328,-2.965 2.965,-2.965z" fill="#4f46e5"></path><path d="M37.483,78.696h-3.878c-2.462,0 -4.465,-2.003 -4.465,-4.465v-16.383c0,-2.461 2.003,-4.464 4.465,-4.464h3.878c2.462,0 4.465,2.003 4.465,4.464v16.383c0,2.462 -2.003,4.465 -4.465,4.465zM33.605,56.383c-0.808,0 -1.465,0.657 -1.465,1.464v16.383c0,0.808 0.657,1.465 1.465,1.465h3.878c0.808,0 1.465,-0.657 1.465,-1.465v-16.382c0,-0.808 -0.657,-1.464 -1.465,-1.464h-3.878z" fill="#3a312a"></path><path d="M179.237,26.403c0,0 3.408,12.659 13.222,13.246c0,0 -13.1,4.525 -13.321,14.202c0,0 -2.579,-13.572 -12.925,-14.059c-0.001,0.001 12.05,-1.825 13.024,-13.389z" fill="#e9b44c"></path><path d="M179.136,55.351c-0.713,0 -1.335,-0.506 -1.472,-1.217c-0.024,-0.124 -2.494,-12.417 -11.522,-12.842c-0.77,-0.037 -1.387,-0.651 -1.427,-1.421c-0.04,-0.77 0.511,-1.445 1.273,-1.56c0.441,-0.069 10.894,-1.817 11.754,-12.032c0.061,-0.725 0.634,-1.301 1.359,-1.367c0.718,-0.062 1.393,0.398 1.583,1.101c0.032,0.116 3.259,11.626 11.863,12.14c0.714,0.043 1.298,0.584 1.396,1.292c0.098,0.708 -0.319,1.388 -0.994,1.623c-0.121,0.042 -12.118,4.311 -12.313,12.819c-0.018,0.767 -0.61,1.396 -1.374,1.459c-0.042,0.003 -0.084,0.005 -0.126,0.005zM171.395,39.621c3.878,1.97 6.23,5.746 7.586,8.876c2.026,-4.021 5.942,-6.787 8.949,-8.427c-4.135,-1.842 -6.783,-5.651 -8.334,-8.722c-1.792,4.36 -5.27,6.869 -8.201,8.273z" fill="#3a312a"></path><path d="M157.538,43.384c0,0 2.411,8.954 9.352,9.369c0,0 -9.266,3.201 -9.422,10.046c0,0 -1.824,-9.6 -9.142,-9.944c0,-0.001 8.523,-1.292 9.212,-9.471z" fill="#e9b44c"></path><path d="M157.467,64.298c-0.714,0 -1.337,-0.507 -1.473,-1.22c-0.016,-0.082 -1.704,-8.442 -7.739,-8.726c-0.771,-0.037 -1.388,-0.651 -1.428,-1.421c-0.04,-0.771 0.511,-1.445 1.273,-1.56c0.296,-0.047 7.364,-1.243 7.942,-8.114c0.061,-0.726 0.635,-1.303 1.36,-1.368c0.732,-0.062 1.392,0.4 1.582,1.102v0c0.021,0.079 2.228,7.919 7.993,8.264c0.715,0.043 1.299,0.584 1.396,1.293c0.098,0.709 -0.319,1.388 -0.996,1.622c-0.081,0.028 -8.282,2.953 -8.412,8.662c-0.018,0.767 -0.611,1.398 -1.376,1.461c-0.04,0.004 -0.081,0.005 -0.122,0.005zM152.948,52.771c2.107,1.333 3.523,3.394 4.447,5.28c1.376,-2.232 3.515,-3.872 5.364,-4.973c-2.287,-1.269 -3.884,-3.35 -4.941,-5.223c-1.173,2.286 -3.015,3.875 -4.87,4.916z" fill="#3a312a"></path><path d="M157.538,16.726c0,0 2.411,8.954 9.352,9.369c0,0 -9.266,3.201 -9.422,10.046c0,0 -1.824,-9.6 -9.142,-9.944c0,0 8.523,-1.291 9.212,-9.471z" fill="#e9b44c"></path><path d="M157.466,37.641c-0.713,0 -1.337,-0.507 -1.472,-1.22c-0.016,-0.082 -1.704,-8.442 -7.739,-8.726c-0.77,-0.037 -1.387,-0.651 -1.427,-1.421c-0.04,-0.771 0.511,-1.445 1.273,-1.561c0.296,-0.047 7.364,-1.243 7.942,-8.114c0.061,-0.726 0.635,-1.303 1.36,-1.368c0.732,-0.063 1.392,0.399 1.582,1.102v0c0.021,0.079 2.228,7.92 7.994,8.265c0.714,0.043 1.299,0.584 1.396,1.293c0.098,0.709 -0.32,1.388 -0.996,1.622c-0.081,0.028 -8.282,2.952 -8.412,8.662c-0.018,0.767 -0.611,1.397 -1.376,1.461c-0.042,0.004 -0.083,0.005 -0.125,0.005zM152.948,26.114c2.107,1.333 3.523,3.394 4.447,5.28c1.376,-2.233 3.515,-3.872 5.365,-4.973c-2.287,-1.27 -3.884,-3.35 -4.941,-5.224c-1.174,2.286 -3.016,3.875 -4.871,4.917z" fill="#3a312a"></path><path d="M119.008,239.274h120.573v-102.475h-60.346v25.282h-54.272v25.283h-54.272v25.282h-54.272v26.628h89.735z" fill="#e9b44c"></path><path d="M239.581,240.774h-120.573c-0.829,0 -1.5,-0.671 -1.5,-1.5c0,-0.829 0.671,-1.5 1.5,-1.5h119.072v-99.475h-57.346v23.782c0,0.829 -0.671,1.5 -1.5,1.5h-52.772v23.783c0,0.829 -0.671,1.5 -1.5,1.5h-52.771v23.782c0,0.829 -0.671,1.5 -1.5,1.5h-52.772v23.628h88.234c0.829,0 1.5,0.671 1.5,1.5c0,0.829 -0.671,1.5 -1.5,1.5h-89.734c-0.829,0 -1.5,-0.671 -1.5,-1.5v-26.628c0,-0.829 0.671,-1.5 1.5,-1.5h52.772v-23.782c0,-0.829 0.671,-1.5 1.5,-1.5h52.772v-23.783c0,-0.829 0.671,-1.5 1.5,-1.5h52.772v-23.782c0,-0.829 0.671,-1.5 1.5,-1.5h60.346c0.829,0 1.5,0.671 1.5,1.5v102.475c0,0.828 -0.672,1.5 -1.5,1.5z" fill="#3a312a"></path><rect x="223.081" y="138.295" width="15" height="99.48" fill="#c99430"></rect></g></g></svg>