<svg xmlns="http://www.w3.org/2000/svg" xmlns:xlink="http://www.w3.org/1999/xlink" viewBox="0,0,256,256" width="72px" height="72px" fill-rule="nonzero"><g fill="none" fill-rule="nonzero" stroke="none" stroke-width="1" stroke-linecap="butt" stroke-linejoin="miter" stroke-miterlimit="10" stroke-dasharray="" stroke-dashoffset="0" font-family="none" font-weight="none" font-size="none" text-anchor="none" style="mix-blend-mode: normal"><g transform="scale(0.53333,0.53333)"><path d="M193,32v174c0,13.255 -10.745,24 -24,24h-38.877c-4.156,0 -7.674,3.179 -7.975,7.324c-0.409,5.625 0.021,11.256 1.25,16.716c1.423,6.323 -4.948,11.573 -10.927,9.072c-12.349,-5.165 -22.809,-14.969 -28.371,-28.124c-1.267,-2.998 -4.154,-4.988 -7.408,-4.988h-44.692c-13.255,0 -24,-10.745 -24,-24v-174c0,-13.255 10.746,-24 24,-24h137c13.255,0 24,10.745 24,24z" fill="#e9b44c"></path><path d="M168.937,48c-66.791,0 -120.937,54.145 -120.937,120.937v37c0,25.172 -37.543,27.395 -39.894,2.333c-0.165,-1.759 -0.106,-177.27 -0.106,-176.27c0,-13.255 10.746,-24 24,-24h137c27.258,0 26.007,40 -0.063,40z" fill="#9cbcff"></path><path d="M448,315h-69l-10,-40h63c8.837,0 16,-7.164 16,-16v-112c0,-8.836 -7.163,-16 -16,-16h-166c-8.837,0 -16,7.164 -16,16v112c0,8.836 7.163,16 16,16h63l-10,40h-287c-13.25,0 -24,10.75 -24,24v6c0,13.25 10.75,24 24,24h18l8.597,88.546c0.796,8.199 7.688,14.454 15.925,14.454h330.956c8.238,0 15.129,-6.255 15.925,-14.454l8.597,-88.546h18c13.25,0 24,-10.75 24,-24v-6c0,-13.25 -10.75,-24 -24,-24z" fill="#ffbd7b"></path><path d="M432,131h-166c-8.837,0 -16,7.164 -16,16v112c0,8.836 7.163,16 16,16h63l-10,40h60l-10,-40h63c8.837,0 16,-7.164 16,-16v-112c0,-8.836 -7.163,-16 -16,-16z" fill="#caf1fc"></path><path d="M430,369l-2.62,27h-374.76l-2.62,-27z" fill="#ffaa64"></path><path d="M448,147v4c0,8.837 -7.163,16 -16,16h-54c-50.81,0 -92,41.19 -92,92c0,8.837 -7.163,16 -16,16h-4c-8.837,0 -16,-7.163 -16,-16v-112c0,-8.837 7.163,-16 16,-16h166c8.837,0 16,7.163 16,16z" fill="#e8f8fc"></path><path d="M363.754,295h-29.508c-5.205,0 -9.023,-4.891 -7.761,-9.94l2.515,-10.06h40l2.515,10.06c1.263,5.049 -2.556,9.94 -7.761,9.94z" fill="#a4ebfc"></path><path d="M448.294,340h-391.294c-8.439,0 -16.117,3.704 -20.412,11.978c-7.196,13.863 -28.344,9.014 -28.585,-6.604c-0.005,-0.34 -0.003,-6.571 -0.003,-6.374c0,-13.255 10.745,-24 24,-24c3.03,0 416.296,-0.02 417.318,0.036c15.977,0.877 14.976,24.964 -1.024,24.964z" fill="#ffd3a6"></path><path d="M448,307h-62.754c-8.897,-35.588 -8.483,-34.088 -8.793,-34.889c-0.771,-1.991 -2.295,-3.557 -4.164,-4.397c-2.266,-1.024 5.688,-0.714 -114.289,-0.714v-128h182v128h-20c-4.418,0 -8,3.582 -8,8c0,4.418 3.582,8 8,8h28c4.418,0 8,-3.582 8,-8v-144c0,-4.418 -3.582,-8 -8,-8h-198c-4.418,0 -8,3.582 -8,8v144c0,4.418 3.582,8 8,8h68.754l-6,24h-280.754c-17.645,0 -32,14.355 -32,32v6c0,17.645 14.355,32 32,32h345c4.418,0 8,-3.582 8,-8c0,-4.418 -3.582,-8 -8,-8h-345c-8.822,0 -16,-7.178 -16,-16v-6c0,-8.822 7.178,-16 16,-16c17.621,0 398.419,0 416,0c8.822,0 16,7.178 16,16v6c0,8.822 -7.178,16 -16,16c-19.548,0 -19.247,-0.26 -21.43,0.781c-1.925,0.917 -3.292,2.469 -4.007,4.286c-0.623,1.576 0.179,-5.087 -10.525,105.159c-0.455,4.689 3.224,8.774 7.972,8.774c4.07,0 7.552,-3.094 7.953,-7.228l9.298,-95.772h10.739c17.645,0 32,-14.355 32,-32v-6c0,-17.645 -14.354,-32 -32,-32zM335.247,283h27.507l6,24h-39.507zM67.963,471.227c0.427,4.398 -2.792,8.309 -7.189,8.736c-4.415,0.427 -8.31,-2.806 -8.735,-7.189l-5.997,-61.764c-0.427,-4.398 2.792,-8.309 7.189,-8.736c4.396,-0.421 8.309,2.792 8.735,7.189zM0,206v-174c0,-17.645 14.355,-32 32,-32h137c17.645,0 32,14.355 32,32v174c0,30.497 -40,40.803 -40,24c0,-4.418 3.582,-8 8,-8c8.822,0 16,-7.178 16,-16v-174c0,-8.822 -7.178,-16 -16,-16h-137c-8.822,0 -16,7.178 -16,16v174c0,8.822 7.178,16 16,16h50.28c3.508,0 6.606,2.285 7.643,5.637c4.015,12.982 13.535,23.145 25.685,28.162c-2.013,-8.978 -2.139,-18.351 -0.285,-27.404c0.886,-4.327 5.115,-7.121 9.442,-6.231c4.329,0.886 7.119,5.113 6.232,9.442c-2.193,10.707 -0.713,22.014 4.166,31.835c2.769,5.574 -1.63,12.093 -7.906,11.525c-22.658,-2.11 -41.928,-16.385 -50.572,-36.966h-44.685c-17.645,0 -32,-14.355 -32,-32zM95,151v-32.701h-5.675c-4.418,0 -8,-3.582 -8,-8c0,-4.418 3.582,-8 8,-8h13.675c4.418,0 8,3.582 8,8v40.701h10.234c4.418,0 8,3.582 8,8c0,4.418 -3.582,8 -8,8h-36.467c-4.418,0 -8,-3.582 -8,-8c0,-4.418 3.582,-8 8,-8zM100.221,90c7.29,0 13.221,-5.931 13.221,-13.221c0,-7.29 -5.931,-13.221 -13.221,-13.221c-7.29,0 -13.221,5.931 -13.221,13.221c0,7.29 5.931,13.221 13.221,13.221z" fill="#000000"></path></g></g></svg>