<svg xmlns="http://www.w3.org/2000/svg" xmlns:xlink="http://www.w3.org/1999/xlink" viewBox="0,0,256,256" width="72px" height="72px" fill-rule="nonzero"><g fill="none" fill-rule="nonzero" stroke="none" stroke-width="none" stroke-linecap="none" stroke-linejoin="none" stroke-miterlimit="10" stroke-dasharray="" stroke-dashoffset="0" font-family="none" font-weight="none" font-size="none" text-anchor="none" style="mix-blend-mode: normal"><g transform="scale(5.33333,5.33333)"><path d="M31.582,39h-16.754c-2.667,0 -4.828,-2.161 -4.828,-4.828v-18.344c0,-2.667 2.161,-4.828 4.828,-4.828h2.055h5.01h19.28c2.666,0 4.827,2.161 4.827,4.828v18.345c0,2.666 -2.161,4.827 -4.828,4.827h-4.208z" fill="#e9b44c" stroke="none" stroke-width="1" stroke-linecap="butt" stroke-linejoin="miter"></path><path d="M19.83,35.5h-9.33c-2.761,0 -5,-2.239 -5,-5v-19c0,-2.761 2.239,-5 5,-5h2.074h5.149h19.777c2.761,0 5,2.239 5,5v7.67" fill="none" stroke="#18193f" stroke-width="3" stroke-linecap="round" stroke-linejoin="round"></path><path d="M10.152,16.015l11.946,6.457c1.187,0.642 2.617,0.642 3.804,0l11.787,-6.372" fill="none" stroke="#18193f" stroke-width="3" stroke-linecap="round" stroke-linejoin="round"></path><path d="M26.859,40.365c-0.552,-1.26 -0.859,-2.652 -0.859,-4.115c0,-5.661 4.589,-10.25 10.25,-10.25c2.353,0 4.521,0.793 6.251,2.126" fill="none" stroke="#18193f" stroke-width="3" stroke-linecap="round" stroke-linejoin="round"></path><path d="M46.426,35.009c0.049,0.407 0.074,0.821 0.074,1.241c0,5.661 -4.589,10.25 -10.25,10.25c-1.254,0 -2.455,-0.225 -3.566,-0.637" fill="none" stroke="#18193f" stroke-width="3" stroke-linecap="round" stroke-linejoin="round"></path><g fill="none" stroke="#18193f" stroke-width="3" stroke-linecap="round" stroke-linejoin="round"><path d="M36.25,32.95v7.757"></path><path d="M39.815,35.283l-3.565,-3.658l-3.565,3.658"></path></g></g></g></svg>