<svg xmlns="http://www.w3.org/2000/svg" xmlns:xlink="http://www.w3.org/1999/xlink" viewBox="0,0,256,256" width="72px" height="72px" fill-rule="nonzero"><g fill="none" fill-rule="nonzero" stroke="none" stroke-width="1" stroke-linecap="butt" stroke-linejoin="miter" stroke-miterlimit="10" stroke-dasharray="" stroke-dashoffset="0" font-family="none" font-weight="none" font-size="none" text-anchor="none" style="mix-blend-mode: normal"><g transform="scale(0.5,0.5)"><path d="M64,40h240c17.673,0 32,14.327 32,32v368c0,17.673 -14.327,32 -32,32h-192l-80,-72v-328c0,-17.673 14.327,-32 32,-32z" fill="#d7e6f0"></path><path d="M104,352h-29.333c-4.418,0 -8,-3.582 -8,-8v0c0,-4.418 3.582,-8 8,-8h29.333c4.418,0 8,3.582 8,8v0c0,4.418 -3.582,8 -8,8z" fill="#102f3a"></path><path d="M296,352h-157.333c-4.418,0 -8,-3.582 -8,-8v0c0,-4.418 3.582,-8 8,-8h157.333c4.418,0 8,3.582 8,8v0c0,4.418 -3.582,8 -8,8z" fill="#102f3a"></path><path d="M104,384h-29.333c-4.418,0 -8,-3.582 -8,-8v0c0,-4.418 3.582,-8 8,-8h29.333c4.418,0 8,3.582 8,8v0c0,4.418 -3.582,8 -8,8z" fill="#102f3a"></path><path d="M296,384h-157.333c-4.418,0 -8,-3.582 -8,-8v0c0,-4.418 3.582,-8 8,-8h157.333c4.418,0 8,3.582 8,8v0c0,4.418 -3.582,8 -8,8z" fill="#102f3a"></path><path d="M296,416h-157.333c-4.418,0 -8,-3.582 -8,-8v0c0,-4.418 3.582,-8 8,-8h157.333c4.418,0 8,3.582 8,8v0c0,4.418 -3.582,8 -8,8z" fill="#102f3a"></path><g><circle cx="184" cy="192" r="112" fill="#e9b44c"></circle><path d="M80,200c-4.418,0 -8,-3.582 -8,-8c0,-61.757 50.243,-112 112,-112c4.418,0 8,3.582 8,8c0,4.418 -3.582,8 -8,8c-52.935,0 -96,43.065 -96,96c0,4.418 -3.582,8 -8,8z" fill="#102f3a"></path><circle cx="184" cy="192" r="96" fill="#d7e6f0"></circle><path d="M200,208h-32c-13.255,0 -24,-10.745 -24,-24v-48c0,-13.255 10.745,-24 24,-24h32c13.255,0 24,10.745 24,24v48c0,13.255 -10.745,24 -24,24z" fill="#fab991"></path><rect x="168" y="208" width="32" height="16" fill="#f0915a"></rect><path d="M216,224h-64c-19.154,0 -35.686,11.219 -43.387,27.443c17.581,22.266 44.815,36.557 75.387,36.557c30.572,0 57.806,-14.291 75.387,-36.557c-7.701,-16.224 -24.233,-27.443 -43.387,-27.443z" fill="#faa019"></path><path d="M200,112h-32c-13.255,0 -24,10.745 -24,24v24c4.418,0 8,-3.582 8,-8v-8c0,-4.418 3.582,-8 8,-8h48c4.418,0 8,3.582 8,8v8c0,4.418 3.582,8 8,8v-24c0,-13.255 -10.745,-24 -24,-24z" fill="#463c4b"></path><path d="M224,176v0v-24v0c4.418,0 8,3.582 8,8v8c0,4.418 -3.582,8 -8,8z" fill="#f0915a"></path><path d="M144,176v0v-24v0c-4.418,0 -8,3.582 -8,8v8c0,4.418 3.582,8 8,8z" fill="#f0915a"></path></g><g fill="#102f3a"><path d="M112,472v-40c0,-17.673 -14.327,-32 -32,-32h-48z"></path></g><g><path d="M408,264c-4.418,0 -8,-3.582 -8,-8v-24h-64v24c0,4.418 -3.582,8 -8,8c-4.418,0 -8,-3.582 -8,-8v-32c0,-4.418 3.582,-8 8,-8h80c4.418,0 8,3.582 8,8v32c0,4.418 -3.582,8 -8,8z" fill="#102f3a"></path><path d="M464,416h-192c-8.837,0 -16,-7.163 -16,-16v-128c0,-8.837 7.163,-16 16,-16h192c8.837,0 16,7.163 16,16v128c0,8.837 -7.163,16 -16,16z" fill="#faa019"></path><path d="M464,416v0c-8.837,0 -16,-7.163 -16,-16v-128c0,-8.837 7.163,-16 16,-16v0c8.837,0 16,7.163 16,16v128c0,8.837 -7.163,16 -16,16z" fill="#102f3a"></path><path d="M432,352h-160c-8.837,0 -16,-7.163 -16,-16v-64c0,-8.837 7.163,-16 16,-16h192v0c-8.837,0 -16,7.163 -16,16v64c0,8.837 -7.163,16 -16,16z" fill="#e9b44c"></path><path d="M368,368h-32c-4.418,0 -8,-3.582 -8,-8v-16c0,-4.418 3.582,-8 8,-8h32c4.418,0 8,3.582 8,8v16c0,4.418 -3.582,8 -8,8z" fill="#102f3a"></path><path d="M360,368h-24c-4.418,0 -8,-3.582 -8,-8v-16c0,-4.418 3.582,-8 8,-8h24c4.418,0 8,3.582 8,8v16c0,4.418 -3.582,8 -8,8z" fill="#d7e6f0"></path></g></g></g></svg>