<svg xmlns="http://www.w3.org/2000/svg" xmlns:xlink="http://www.w3.org/1999/xlink" viewBox="0,0,256,256" width="72px" height="72px" fill-rule="nonzero"><g fill="none" fill-rule="nonzero" stroke="none" stroke-width="1" stroke-linecap="butt" stroke-linejoin="miter" stroke-miterlimit="10" stroke-dasharray="" stroke-dashoffset="0" font-family="none" font-weight="none" font-size="none" text-anchor="none" style="mix-blend-mode: normal"><g transform="scale(2.56,2.56)"><path d="M52,83v0c-6.075,0 -11,-4.925 -11,-11v-15h22v15c0,6.075 -4.925,11 -11,11z" fill="#4b4dff"></path><circle cx="52" cy="43" r="22" fill="#e9b44c"></circle><rect x="44" y="70.625" width="15.625" height="4" fill="#edf7f5"></rect><rect x="44" y="62.625" width="15.625" height="4" fill="#edf7f5"></rect><path d="M52,87c-7.72,0 -14,-6.28 -14,-14v-9.293c-6.826,-4.627 -11,-12.407 -11,-20.707c0,-13.785 11.215,-25 25,-25c13.785,0 25,11.215 25,25c0,8.3 -4.174,16.08 -11,20.707v9.293c0,7.72 -6.28,14 -14,14zM52,24c-10.477,0 -19,8.523 -19,19c0,6.757 3.642,13.062 9.503,16.453l1.497,0.866v12.681c0,4.411 3.589,8 8,8c4.411,0 8,-3.589 8,-8v-12.681l1.497,-0.866c5.861,-3.391 9.503,-9.696 9.503,-16.453c0,-10.477 -8.523,-19 -19,-19z" fill="#4343bf"></path><path d="M51.302,91v-10c3.693,0 6.698,-3.005 6.698,-6.698v-14.53l2.495,-1.443c5.677,-3.285 9.203,-9.391 9.203,-15.933c0,-10.144 -8.605,-18.368 -18.749,-18.368l0.051,-10.028c15.658,0 28.698,12.738 28.698,28.396c0,9.102 -4.418,17.652 -11.698,22.962v8.943c0,9.208 -7.491,16.699 -16.698,16.699z" fill="#6a78cf"></path><rect x="12.14152" y="30.40559" transform="rotate(-45.001)" width="4" height="9.899" fill="#e9b44c"></rect><rect x="15" y="39" width="9" height="4" fill="#e9b44c"></rect><rect x="-8.51109" y="30.45655" transform="rotate(-54.463)" width="4" height="8.602" fill="#e9b44c"></rect></g></g></svg>