<svg xmlns="http://www.w3.org/2000/svg" xmlns:xlink="http://www.w3.org/1999/xlink" viewBox="0,0,256,256" width="72px" height="72px" fill-rule="nonzero"><g fill="none" fill-rule="nonzero" stroke="none" stroke-width="1" stroke-linecap="butt" stroke-linejoin="miter" stroke-miterlimit="10" stroke-dasharray="" stroke-dashoffset="0" font-family="none" font-weight="none" font-size="none" text-anchor="none" style="mix-blend-mode: normal"><g transform="scale(4,4)"><g><path d="M22.01593,38.98407l-5.51593,5.51593l3,3l5.51593,-5.51593c-1.09373,-0.90165 -2.09835,-1.90627 -3,-3z" fill="#eeeeee"></path><circle cx="39" cy="25" r="22" fill="#8882ef"></circle><circle cx="39" cy="25" r="18" fill="#eeeeee"></circle><circle cx="39" cy="25" r="18" fill="#eeeeee"></circle><path d="M57,25c0.00283,7.01083 -4.06686,13.38487 -10.42794,16.33248c-6.36108,2.94761 -13.85503,1.93194 -19.20206,-2.60248c2.10891,0.84183 4.35927,1.2729 6.63,1.27c7.55198,0.00242 14.30195,-4.711 16.9009,-11.80169c2.59895,-7.09069 0.49383,-15.04976 -5.2709,-19.92831c6.86452,2.71447 11.37297,9.34827 11.37,16.73z" fill="#e0e0e0"></path><path d="M4.24265,59.75736v0c-0.79565,-0.79565 -1.24264,-1.87478 -1.24264,-3c0,-1.12522 0.44699,-2.20435 1.24264,-3l9.34315,-9.34315c0.78105,-0.78104 2.04737,-0.78104 2.82842,0l3.17158,3.17158c0.78104,0.78105 0.78104,2.04737 0,2.82842l-9.34315,9.34315c-0.79565,0.79565 -1.87478,1.24264 -3,1.24264c-1.12522,0 -2.20435,-0.44699 -3,-1.24264z" fill="#8882ef"></path><path d="M19.59,50.41l-9.35,9.35c-1.37191,1.37785 -3.506,1.64404 -5.17433,0.6454c-1.66834,-0.99864 -2.44193,-3.0053 -1.87567,-4.8654c-0.21976,0.74956 -0.23013,1.54497 -0.03,2.3c1.45529,0.39094 3.00871,-0.02026 4.08,-1.08l7.35,-7.35c0.37451,-0.37365 0.58498,-0.88094 0.58498,-1.40997c0,-0.52903 -0.21047,-1.03632 -0.58498,-1.40997l-1.59,-1.59006l0.59,-0.59c0.37366,-0.37451 0.88096,-0.58498 1.41,-0.58498c0.52904,0 1.03634,0.21047 1.41,0.58498l3.18,3.18c0.37453,0.37365 0.58501,0.88096 0.58501,1.41c0,0.52904 -0.21048,1.03635 -0.58501,1.41z" fill="#1a1569"></path><path d="M22.01593,38.98407l-2.12665,2.12665c0.91375,1.08269 1.91731,2.08625 3,3l2.12665,-2.12665c-1.09373,-0.90165 -2.09835,-1.90627 -3,-3z" fill="#e0e0e0"></path><path d="M29,22h20v10c0,1.10457 -0.89543,2 -2,2h-16c-1.10457,0 -2,-0.89543 -2,-2z" fill="#e9b44c"></path><path d="M49,22v10c-0.00322,1.10323 -0.89677,1.99678 -2,2h-16c-0.71401,0.00007 -1.37369,-0.38125 -1.73,-1h14.73c1.10323,-0.00322 1.99678,-0.89677 2,-2v-9z" fill="#e9b44c"></path><path d="M30,18h18c1.10457,0 2,0.89543 2,2v2c0,2.20914 -1.79086,4 -4,4h-14c-2.20914,0 -4,-1.79086 -4,-4v-2c0,-1.10457 0.89543,-2 2,-2z" fill="#e9b44c"></path><path d="M50,20v2c0.0003,1.06096 -0.42103,2.07855 -1.17124,2.82876c-0.75021,0.75021 -1.7678,1.17154 -2.82876,1.17124h-3c1.06096,0.0003 2.07855,-0.42103 2.82876,-1.17124c0.75021,-0.75021 1.17154,-1.7678 1.17124,-2.82876v-2c-0.00322,-1.10323 -0.89677,-1.99678 -2,-2h3c1.10323,0.00322 1.99678,0.89677 2,2z" fill="#e9b44c"></path><path d="M39,2c-8.73617,-0.00589 -16.72042,4.9414 -20.60403,12.7669c-3.88361,7.8255 -2.99508,17.17613 2.29293,24.1301l-4.29242,4.29242c-1.15906,-0.61807 -2.58567,-0.40816 -3.51757,0.51758l-9.34327,9.34329c-2.04538,2.04768 -2.04444,5.36546 0.00208,7.41199c2.04653,2.04653 5.36431,2.04746 7.41199,0.00208l9.34329,-9.34327c0.92572,-0.93194 1.13565,-2.35854 0.51764,-3.51764l4.29236,-4.29235c7.98273,6.05896 18.97018,6.25014 27.15886,0.47255c8.18868,-5.77758 11.69247,-16.19316 8.66068,-25.74529c-3.03179,-9.55213 -11.90082,-16.04065 -21.92255,-16.03837zM18.87891,49.707l-9.34327,9.34329c-1.26637,1.26637 -3.31956,1.26637 -4.58593,0c-1.26637,-1.26637 -1.26637,-3.31956 0,-4.58593l9.34329,-9.34327c0.39069,-0.38998 1.02337,-0.38998 1.41406,0l3.17185,3.17191c0.3896,0.39082 0.3896,1.02318 0,1.414zM19.5,46.08594l-1.58594,-1.58594l4.05658,-4.05658c0.50275,0.55383 1.03139,1.08247 1.58594,1.58594zM39,46c-11.59798,0 -21,-9.40202 -21,-21c0,-11.59798 9.40202,-21 21,-21c11.59798,0 21,9.40202 21,21c-0.013,11.59259 -9.40741,20.987 -21,21zM39,6c-10.49341,0 -19,8.50659 -19,19c0,10.49341 8.50659,19 19,19c10.49341,0 19,-8.50659 19,-19c-0.01191,-10.48847 -8.51153,-18.98809 -19,-19zM39,42c-9.38884,0 -17,-7.61116 -17,-17c0,-9.38884 7.61116,-17 17,-17c9.38884,0 17,7.61116 17,17c-0.01047,9.3845 -7.6155,16.98953 -17,17zM48,17h-4v-1c-0.00181,-1.6561 -1.3439,-2.99819 -3,-3h-4c-1.6561,0.00181 -2.99819,1.3439 -3,3v1h-4c-1.6561,0.00181 -2.99819,1.3439 -3,3v2c0.00327,1.07182 0.35417,2.11366 1,2.96906v7.03094c0.00181,1.6561 1.3439,2.99819 3,3h16c1.6561,-0.00181 2.99819,-1.3439 3,-3v-7.03094c0.64583,-0.8554 0.99673,-1.89724 1,-2.96906v-2c-0.00181,-1.6561 -1.3439,-2.99819 -3,-3zM36,16c0.00072,-0.55199 0.44801,-0.99928 1,-1h4c0.55199,0.00072 0.99928,0.44801 1,1v1h-6zM29,20c0.00072,-0.55199 0.44801,-0.99928 1,-1h18c0.55199,0.00072 0.99928,0.44801 1,1v2c-0.00181,1.6561 -1.3439,2.99819 -3,3h-1v-1c0,-0.55228 -0.44772,-1 -1,-1c-0.55228,0 -1,0.44772 -1,1v1h-8v-1c0,-0.55228 -0.44772,-1 -1,-1c-0.55228,0 -1,0.44772 -1,1v1h-1c-1.6561,-0.00181 -2.99819,-1.3439 -3,-3zM47,33h-16c-0.55199,-0.00072 -0.99928,-0.44801 -1,-1v-5.42383c0.63,0.27862 1.31114,0.42296 2,0.42383h1v1c0,0.55228 0.44772,1 1,1c0.55228,0 1,-0.44772 1,-1v-1h8v1c0,0.55228 0.44772,1 1,1c0.55228,0 1,-0.44772 1,-1v-1h1c0.68886,-0.00087 1.37,-0.14521 2,-0.42383v5.42383c-0.00072,0.55199 -0.44801,0.99928 -1,1z" fill="#000000"></path></g></g></g></svg>