<svg xmlns="http://www.w3.org/2000/svg" xmlns:xlink="http://www.w3.org/1999/xlink" viewBox="0,0,256,256" width="72px" height="72px" fill-rule="nonzero"><g fill="none" fill-rule="nonzero" stroke="none" stroke-width="1" stroke-linecap="butt" stroke-linejoin="miter" stroke-miterlimit="10" stroke-dasharray="" stroke-dashoffset="0" font-family="none" font-weight="none" font-size="none" text-anchor="none" style="mix-blend-mode: normal"><g><circle cx="28.738" cy="71.863" r="22.454" fill="#ffbb98"></circle><path d="M75.062,246.335c-8.338,0 -15.097,-6.759 -15.097,-15.097v-12.2c0,-4.446 -3.618,-8.064 -8.065,-8.064c-21.096,0 -38.259,-17.163 -38.259,-38.26v-40.932c0,-8.338 6.76,-15.097 15.097,-15.097c8.337,0 15.097,6.759 15.097,15.097v40.932c0,4.447 3.617,8.065 8.064,8.065c21.097,0 38.26,17.163 38.26,38.259v12.2c0,8.338 -6.76,15.097 -15.097,15.097z" fill="#30596b"></path><circle cx="227.265" cy="71.863" r="22.454" fill="#ffbb98"></circle><path d="M180.941,246.335c-8.338,0 -15.097,-6.759 -15.097,-15.097v-12.2c0,-21.096 17.163,-38.259 38.26,-38.259c4.446,0 8.064,-3.618 8.064,-8.065v-40.932c0,-8.338 6.76,-15.097 15.097,-15.097c8.338,0 15.097,6.759 15.097,15.097v40.932c0,21.096 -17.163,38.26 -38.259,38.26c-4.446,0 -8.065,3.618 -8.065,8.064v12.2c0.001,8.338 -6.759,15.097 -15.097,15.097z" fill="#30596b"></path><rect x="43.836" y="137.677" width="168.331" height="25.242" fill="#e9b44c"></rect><path d="M36.241,93.022c-2.35,0.84 -4.87,1.29 -7.5,1.29c-12.4,0 -22.46,-10.05 -22.46,-22.45c0,-12.4 10.06,-22.45 22.46,-22.45c2.63,0 5.15,0.45 7.5,1.29c-8.72,3.08 -14.96,11.39 -14.96,21.16c0,9.77 6.24,18.08 14.96,21.16z" fill="#ffcaa6"></path><path d="M82.561,244.332c-2.21,1.28 -4.77,2 -7.5,2c-8.34,0 -15.1,-6.76 -15.1,-15.09v-12.2c0,-4.45 -3.62,-8.07 -8.06,-8.07c-21.1,0 -38.26,-17.16 -38.26,-38.26v-40.93c0,-8.34 6.76,-15.1 15.1,-15.1c2.73,0 5.29,0.73 7.5,2c-4.54,2.6 -7.6,7.49 -7.6,13.1v40.93c0,21.1 17.16,38.26 38.26,38.26c4.44,0 8.06,3.62 8.06,8.07v12.2c0,5.6 3.06,10.501 7.6,13.09z" fill="#36778d"></path><path d="M234.761,93.022c-2.34,0.84 -4.87,1.29 -7.5,1.29c-12.4,0 -22.45,-10.05 -22.45,-22.45c0,-12.4 10.05,-22.45 22.45,-22.45c2.63,0 5.16,0.45 7.5,1.29c-8.71,3.08 -14.95,11.39 -14.95,21.16c0,9.77 6.24,18.08 14.95,21.16z" fill="#ffcaa6"></path><path d="M234.771,118.683c-4.54,2.6 -7.6,7.49 -7.6,13.1v40.93c0,4.45 -3.62,8.07 -8.07,8.07c-21.09,0 -38.26,17.16 -38.26,38.26v12.2c0,5.6 3.06,10.5 7.6,13.09c-2.21,1.28 -4.77,2 -7.5,2c-8.34,0 -15.1,-6.76 -15.1,-15.09v-12.2c0,-21.1 17.17,-38.26 38.26,-38.26c4.45,0 8.07,-3.62 8.07,-8.07v-40.93c0,-8.34 6.76,-15.1 15.09,-15.1c2.73,0 5.3,0.729 7.51,2z" fill="#36778d"></path><rect x="43.831" y="137.672" width="15" height="25.25" fill="#c98585"></rect><rect x="197.171" y="137.672" width="15" height="25.25" fill="#965959"></rect><g><path d="M117.992,247.192h-77.146c-6.687,0 -12.108,-5.421 -12.108,-12.108v-45.526c0,-6.687 5.421,-12.108 12.108,-12.108h77.146c6.687,0 12.108,5.421 12.108,12.108v45.526c0,6.687 -5.421,12.108 -12.108,12.108z" fill="#e9b44c"></path><path d="M130.1,205.783h-101.362v-16.225c0,-6.687 5.421,-12.108 12.108,-12.108h77.146c6.687,0 12.108,5.421 12.108,12.108z" fill="#e9b44c"></path><path d="M130.1,189.557v45.526c0,6.685 -5.424,12.109 -12.109,12.109h-11.191c6.685,0 12.109,-5.424 12.109,-12.109v-45.526c0,-6.685 -5.424,-12.109 -12.109,-12.109h11.191c6.685,0 12.109,5.424 12.109,12.109z" fill="#965959"></path><path d="M130.1,189.557v16.227h-11.191v-16.227c0,-6.685 -5.424,-12.109 -12.109,-12.109h11.191c6.685,0 12.109,5.424 12.109,12.109z" fill="#965959"></path><path d="M52.038,247.192h-11.191c-6.685,0 -12.109,-5.424 -12.109,-12.109v-45.526c0,-6.685 5.424,-12.109 12.109,-12.109h11.191c-6.685,0 -12.109,5.424 -12.109,12.109v45.526c0,6.685 5.424,12.109 12.109,12.109z" fill="#c98585"></path><path d="M52.038,177.448c-6.685,0 -12.109,5.424 -12.109,12.109v16.227h-11.191v-16.227c0,-6.685 5.424,-12.109 12.109,-12.109z" fill="#c98585"></path></g><g><path d="M190.027,8.808h-84.951c-2.099,0 -3.801,1.702 -3.801,3.801v58.285c0,2.099 1.702,3.801 3.801,3.801h70.457l11.568,13.941c2.273,2.739 6.726,1.132 6.726,-2.427v-15.315v-7.096v-51.189c0.001,-2.099 -1.701,-3.801 -3.8,-3.801z" fill="#ffe2e2"></path><path d="M178.625,8.808c2.098,0 3.801,1.703 3.801,3.801v70.39l4.675,5.633c2.273,2.744 6.728,1.133 6.728,-2.425v-73.598c0,-2.098 -1.703,-3.801 -3.801,-3.801z" fill="#ffcfcf"></path><path d="M101.273,12.609v58.287c0,2.098 1.703,3.801 3.801,3.801h11.403c-2.098,0 -3.801,-1.703 -3.801,-3.801v-58.287c0,-2.098 1.703,-3.801 3.801,-3.801h-11.403c-2.098,0 -3.801,1.703 -3.801,3.801z" fill="#ffefee"></path></g><g><path d="M70.243,41.753h84.951c2.099,0 3.801,1.702 3.801,3.801v58.285c0,2.099 -1.702,3.801 -3.801,3.801h-70.457l-11.568,13.94c-2.273,2.739 -6.726,1.132 -6.726,-2.427v-15.315v-7.096v-51.188c-0.001,-2.099 1.701,-3.801 3.8,-3.801z" fill="#ffe2e2"></path><path d="M81.645,41.753c-2.098,0 -3.801,1.703 -3.801,3.801v70.39l-4.675,5.633c-2.273,2.744 -6.728,1.133 -6.728,-2.425v-73.598c0,-2.098 1.703,-3.801 3.801,-3.801z" fill="#ffefee"></path><path d="M158.997,45.554v58.287c0,2.098 -1.703,3.801 -3.801,3.801h-11.403c2.098,0 3.801,-1.703 3.801,-3.801v-58.287c0,-2.098 -1.703,-3.801 -3.801,-3.801h11.403c2.098,0 3.801,1.703 3.801,3.801z" fill="#ffcfcf"></path></g><g fill="#14293a"><path d="M28.74,98.32c14.58,0 26.45,-11.87 26.45,-26.46c0,-14.58 -11.87,-26.45 -26.45,-26.45c-14.59,0 -26.46,11.87 -26.46,26.45c0,14.59 11.87,26.46 26.46,26.46zM28.74,53.41c10.17,0 18.45,8.28 18.45,18.45c0,10.18 -8.28,18.46 -18.45,18.46c-10.18,0 -18.46,-8.28 -18.46,-18.46c0,-10.17 8.28,-18.45 18.46,-18.45z"></path><path d="M227.26,98.32c14.59,0 26.46,-11.87 26.46,-26.46c0,-14.58 -11.87,-26.45 -26.46,-26.45c-14.58,0 -26.45,11.87 -26.45,26.45c0,14.59 11.87,26.46 26.45,26.46zM227.26,53.41c10.18,0 18.46,8.28 18.46,18.45c0,10.18 -8.28,18.46 -18.46,18.46c-10.17,0 -18.45,-8.28 -18.45,-18.46c0,-10.17 8.28,-18.45 18.45,-18.45z"></path><path d="M227.26,112.68c-10.53,0 -19.09,8.57 -19.09,19.1v1.9h-160.33v-1.9c0,-10.53 -8.57,-19.1 -19.1,-19.1c-10.53,0 -19.1,8.57 -19.1,19.1v40.93c0,12.97 5.87,24.6 15.1,32.35c0,11.16 0,18.613 0,30.02c0,8.89 7.22,16.11 16.11,16.11h77.14c8.88,0 16.11,-7.22 16.11,-16.11v-29.3v-16.22c0,-9.394 -7.745,-16.11 -16.11,-16.11h-14.688v-5.686c0,-0.285 -0.016,-0.566 -0.043,-0.844h104.91v5.79c0,2.25 -1.83,4.07 -4.07,4.07c-23.3,0 -42.26,18.96 -42.26,42.26v12.2c0,10.53 8.57,19.09 19.1,19.09c10.53,0 19.1,-8.56 19.1,-19.09v-12.2c0,-2.24 1.82,-4.07 4.06,-4.07c23.3,0 42.26,-18.95 42.26,-42.26v-40.93c0.001,-10.53 -8.569,-19.1 -19.099,-19.1zM47.84,166.92h7.739c-0.067,0.698 -0.043,0.69 -0.043,6.53h-7.626c-0.114,-0.549 -0.07,-5.967 -0.07,-6.53zM24.74,193.56c-4.45,-5.78 -7.1,-13.01 -7.1,-20.85v-40.93c0,-6.12 4.98,-11.1 11.1,-11.1c6.12,0 11.1,4.98 11.1,11.1c0,8.068 0,13.1 0,31.14c0,0.615 -0.019,9.95 0.03,10.56c-8.657,0.542 -15.13,6.083 -15.13,20.08zM126.1,235.08c0,4.47 -3.64,8.11 -8.11,8.11c-7.05,0 -69.29,0 -77.14,0c-4.47,0 -8.11,-3.64 -8.11,-8.11c0,-14.285 0,-10.957 0,-25.3c12.007,0 11.717,0.057 12.38,-0.09c0,5.911 0,4.169 0,6.74c0,2.21 1.79,4 4,4c2.21,0 4,-1.79 4,-4c0,-2.831 0,-4.302 0,-6.74c0.742,0.165 52.014,0.13 52.599,0v6.742c0,2.209 1.791,4 4,4c2.209,0 4,-1.791 4,-4v-6.743c1,0.143 -1,0.09 12.381,0.09zM117.99,181.45c4.47,0 8.11,3.64 8.11,8.11v12.22c-13.549,0 -11.397,-0.05 -12.381,0.09v-5.198c0,-2.209 -1.791,-4 -4,-4c-2.209,0 -4,1.791 -4,4v5.198c-0.605,-0.134 -51.903,-0.155 -52.599,0v-5.2c0,-2.21 -1.79,-4 -4,-4c-2.21,0 -4,1.79 -4,4v5.2c-0.66,-0.147 -0.458,-0.09 -11.32,-0.09c-0.36,-0.22 -0.71,-0.45 -1.06,-0.68v-11.54c0,-4.47 3.64,-8.11 8.11,-8.11c9.037,0 69.455,0 77.14,0zM64.378,166.922h30.082c0.472,0 0.842,0.37 0.842,0.842v5.686h-31.766c0,-5.631 -0.28,-6.528 0.842,-6.528zM47.84,158.92v-17.24h160.33v17.24c-6.783,0 -153.63,0 -160.33,0zM238.36,172.71c0,18.89 -15.37,34.26 -34.26,34.26c-6.65,0 -12.06,5.42 -12.06,12.07v12.2c0,6.12 -4.98,11.09 -11.1,11.09c-6.12,0 -11.1,-4.97 -11.1,-11.09v-12.2c0,-18.89 15.37,-34.26 34.26,-34.26c6.66,0 12.07,-5.41 12.07,-12.07c0,-14.665 0,-9.333 0,-40.93c0,-6.12 4.98,-11.1 11.09,-11.1c6.12,0 11.1,4.98 11.1,11.1z"></path><path d="M74.58,229.71h-1.3c-2.21,0 -4,1.79 -4,4c0,2.21 1.79,4 4,4h1.3c2.21,0 4,-1.79 4,-4c0,-2.21 -1.79,-4 -4,-4z"></path><path d="M58.28,229.71c-5.372,0 -8.914,0 -14,0c-2.21,0 -4,1.79 -4,4c0,2.21 1.79,4 4,4c6.305,0 7.775,0 14,0c2.21,0 4,-1.79 4,-4c0,-2.21 -1.79,-4 -4,-4z"></path><path d="M184.525,25.982c0,-2.209 -1.791,-4 -4,-4h-65.948c-2.209,0 -4,1.791 -4,4c0,2.209 1.791,4 4,4h65.948c2.209,0 4,-1.791 4,-4z"></path><path d="M76.25,124.13l10.37,-12.49h68.57c4.31,0 7.81,-3.5 7.81,-7.8v-25.15h10.65l10.37,12.5c4.65,5.592 13.81,2.348 13.81,-4.98v-73.6c0,-4.3 -3.5,-7.8 -7.8,-7.8h-84.95c-4.31,0 -7.81,3.5 -7.81,7.8v25.14h-27.03c-4.3,0 -7.8,3.5 -7.8,7.8v73.6c0,7.27 9.114,10.628 13.81,4.98zM105.27,12.81h84.56v72.85l-11.22,-13.52c-0.76,-0.92 -1.89,-1.45 -3.08,-1.45h-12.53v-9.17h17.53c2.2,0 4,-1.79 4,-4c0,-2.21 -1.8,-4 -4,-4h-17.53v-7.768h17.525c2.209,0 4,-1.791 4,-4c0,-2.209 -1.791,-4 -4,-4h-25.287c-0.016,0 -0.032,-0.002 -0.048,-0.002h-49.92zM70.44,45.75c14.688,0 66.519,0.002 84.56,0.002c0,43.793 0,29.938 0,57.888h-70.26c-1.19,0 -2.32,0.53 -3.08,1.45l-11.22,13.51z"></path><path d="M79.74,62.93c71.059,0 67.293,0.601 69,-1.41c2.194,-2.602 0.355,-6.59 -3.05,-6.59c-7.449,0 -58.547,0 -65.95,0c-2.2,0 -4,1.79 -4,4c0,2.21 1.8,4 4,4z"></path><path d="M79.74,78.7h65.95c5.317,0 5.27,-8 0,-8c-8.273,0 -58.989,0 -65.95,0c-2.2,0 -4,1.79 -4,4c0,2.21 1.8,4 4,4z"></path><path d="M149.693,90.467c0,-2.209 -1.791,-4 -4,-4h-65.948c-2.209,0 -4,1.791 -4,4c0,2.209 1.791,4 4,4h65.948c2.209,0 4,-1.791 4,-4z"></path></g></g></g></svg>