<svg xmlns="http://www.w3.org/2000/svg" xmlns:xlink="http://www.w3.org/1999/xlink" viewBox="0,0,256,256" width="72px" height="72px" fill-rule="nonzero"><g fill="none" fill-rule="nonzero" stroke="none" stroke-width="1" stroke-linecap="butt" stroke-linejoin="miter" stroke-miterlimit="10" stroke-dasharray="" stroke-dashoffset="0" font-family="none" font-weight="none" font-size="none" text-anchor="none" style="mix-blend-mode: normal"><g transform="scale(4,4)"><path d="M50.2,3.04c-3.21367,0.33972 -5.76773,2.85232 -6.16,6.06c-0.20303,1.84721 0.37318,3.69545 1.59,5.1c1.08649,1.39713 1.79583,3.04996 2.06,4.8h6.6c0.28627,-1.76657 1.01565,-3.43176 2.12,-4.84c1.02581,-1.21355 1.58906,-2.75098 1.59,-4.34c-0.03244,-1.97106 -0.90076,-3.83553 -2.38858,-5.1288c-1.48782,-1.29326 -3.45503,-1.89352 -5.41142,-1.6512z" fill="#e9b44c"></path><path d="M47.69,19c0.04977,0.30758 0.07651,0.61844 0.08,0.93v0.92c0.0236,1.76114 1.46882,3.17057 3.23,3.15c0.85125,0.00426 1.67009,-0.32615 2.28,-0.92c0.60727,-0.58285 0.95038,-1.38828 0.95,-2.23v-1.08c0.00125,-0.25778 0.0213,-0.51513 0.06,-0.77z" fill="#4f5d75"></path><circle cx="8" cy="37" r="3" fill="#5a8ccd"></circle><path d="M11,51l2,-1v-6c0,-1.65685 -1.34315,-3 -3,-3h-4c-1.65685,0 -3,1.34315 -3,3v6l2,1l1,10h4z" fill="#5a8ccd"></path><path d="M2.553,50.9l1.507,0.753l0.945,9.447c0.05136,0.51099 0.48143,0.90001 0.995,0.9h4c0.51548,0.00258 0.94846,-0.3871 1,-0.9l0.945,-9.452l1.507,-0.753c0.33711,-0.17082 0.54913,-0.51708 0.548,-0.895v-6c-0.00594,-1.99091 -1.47757,-3.67327 -3.45,-3.944c1.29947,-1.07523 1.78486,-2.85004 1.21346,-4.43694c-0.57141,-1.5869 -2.07682,-2.64486 -3.76346,-2.64486c-1.68664,0 -3.19205,1.05796 -3.76346,2.64486c-0.57141,1.5869 -0.08602,3.36171 1.21346,4.43694c-1.97243,0.27073 -3.44406,1.95309 -3.45,3.944v6c-0.00208,0.38083 0.21233,0.72977 0.553,0.9zM8,35c1.10457,0 2,0.89543 2,2c0,1.10457 -0.89543,2 -2,2c-1.10457,0 -2,-0.89543 -2,-2c0,-1.10457 0.89543,-2 2,-2zM4,44c0,-1.10457 0.89543,-2 2,-2h4c1.10457,0 2,0.89543 2,2v5.382l-1.447,0.723c-0.30839,0.15434 -0.51549,0.45668 -0.548,0.8l-0.905,9.095h-2.195l-0.905,-9.1c-0.03251,-0.34332 -0.23961,-0.64566 -0.548,-0.8l-1.452,-0.718z" fill="#000000"></path><rect x="25.87006" y="31.11291" transform="rotate(-45)" width="2" height="2.828" fill="#000000"></rect><rect x="16.97078" y="40.01219" transform="rotate(-45)" width="2.828" height="2" fill="#000000"></rect><rect x="38.18398" y="44.25483" transform="rotate(-45)" width="2.828" height="2" fill="#000000"></rect><rect x="30.1127" y="52.32612" transform="rotate(-45)" width="2" height="2.828" fill="#000000"></rect><rect x="16" y="10" width="23" height="2" fill="#000000"></rect><rect x="12" y="10" width="2" height="2" fill="#000000"></rect><path d="M7.5,21h23.5c1.65685,0 3,1.34315 3,3c0,1.65685 -1.34315,3 -3,3h-5.5c-3.03757,0 -5.5,2.46243 -5.5,5.5c0,3.03757 2.46243,5.5 5.5,5.5h3.5v-2h-3.5c-1.933,0 -3.5,-1.567 -3.5,-3.5c0,-1.933 1.567,-3.5 3.5,-3.5h5.5c2.76142,0 5,-2.23858 5,-5c0,-2.76142 -2.23858,-5 -5,-5h-23.5c-1.933,0 -3.5,-1.567 -3.5,-3.5c0,-1.933 1.567,-3.5 3.5,-3.5h2.5v-2h-2.5c-3.03757,0 -5.5,2.46243 -5.5,5.5c0,3.03757 2.46243,5.5 5.5,5.5z" fill="#000000"></path><rect x="31" y="36" width="2" height="2" fill="#000000"></rect><path d="M56,36h-21v2h21c2.20914,0 4,1.79086 4,4c0,2.20914 -1.79086,4 -4,4h-10v2h10c3.31371,0 6,-2.68629 6,-6c0,-3.31371 -2.68629,-6 -6,-6z" fill="#000000"></path><rect x="42" y="46" width="2" height="2" fill="#000000"></rect><rect x="17" y="46" width="23" height="2" fill="#000000"></rect><path d="M44.875,14.855c1.12723,1.46124 1.78733,3.22859 1.894,5.071v0.924c0.05003,2.30088 1.92958,4.14001 4.231,4.14001c2.30142,0 4.18097,-1.83913 4.231,-4.14001v-1.079c0.14056,-1.81215 0.81573,-3.54183 1.94,-4.97c2.70851,-3.1924 2.37004,-7.96391 -0.762,-10.742c-1.72438,-1.5358 -4.02014,-2.26652 -6.315,-2.01c-3.68441,0.38341 -6.61188,3.26769 -7.05,6.946c-0.23277,2.12312 0.43088,4.24708 1.831,5.86zM53.231,20.855c-0.05063,1.19543 -1.0345,2.13851 -2.231,2.13851c-1.1965,0 -2.18037,-0.94308 -2.231,-2.13851v-0.855h4.462zM45.031,9.211c0.33434,-2.7442 2.52547,-4.89048 5.276,-5.168c1.72932,-0.19007 3.45862,0.3578 4.763,1.509c1.21922,1.08689 1.92057,2.63967 1.93,4.273c0.00344,1.35101 -0.47767,2.65846 -1.356,3.685c-1.04169,1.32091 -1.78259,2.85322 -2.171,4.49h-1.473v-3.586l1.707,-1.707l-1.414,-1.414l-1.293,1.293l-1.293,-1.293l-1.414,1.414l1.707,1.707v3.586h-1.488c-0.3669,-1.62273 -1.09154,-3.14306 -2.121,-4.45c-1.03837,-1.19542 -1.53061,-2.77001 -1.358,-4.344z" fill="#000000"></path></g></g></svg>