<svg xmlns="http://www.w3.org/2000/svg" xmlns:xlink="http://www.w3.org/1999/xlink" viewBox="0,0,256,256" width="72px" height="72px" fill-rule="nonzero"><g fill="none" fill-rule="nonzero" stroke="none" stroke-width="1" stroke-linecap="butt" stroke-linejoin="miter" stroke-miterlimit="10" stroke-dasharray="" stroke-dashoffset="0" font-family="none" font-weight="none" font-size="none" text-anchor="none" style="mix-blend-mode: normal"><g transform="scale(5.33333,5.33333)"><path d="M40.113,28.76c-0.751,-1.477 -2.556,-2.066 -4.034,-1.316l-8.966,4.556h-11.082v3h18.422l4.343,-2.207c1.478,-0.75 2.067,-2.556 1.317,-4.033z" fill="#c99430"></path><rect x="2" y="24" width="8" height="19" fill="#4f46e5"></rect><rect x="7" y="26" width="3" height="15" fill="#2100c4"></rect><path d="M46.563,29.007l-0.008,-0.014c-0.787,-1.409 -2.567,-1.913 -3.976,-1.126l-12.77,7.133h-11.809v-3h10c1.657,0 3,-1.343 3,-3c0,-1.657 -1.343,-3 -3,-3h-18v15h20c0.004,0 0.008,0 0.012,0c0.573,0.057 1.168,-0.055 1.709,-0.357l13.715,-7.66c1.409,-0.787 1.913,-2.567 1.127,-3.976z" fill="#e9b44c"></path><path d="M24,22v0c4.97,0 9,-4.03 9,-9v0c0,-4.97 -4.03,-9 -9,-9v0c-4.97,0 -9,4.03 -9,9v0c0,4.971 4.029,9 9,9z" fill="#e9b44c"></path><rect x="23" y="17.5" width="2" height="2.35" fill="#110c04"></rect><rect x="23" y="6.15" width="2" height="2.35" fill="#110c04"></rect><path d="M25,12h-2c-0.551,0 -1,-0.448 -1,-1c0,-0.552 0.449,-1 1,-1h4v-2h-4c-1.654,0 -3,1.346 -3,3c0,1.654 1.346,3 3,3h2c0.551,0 1,0.448 1,1c0,0.552 -0.449,1 -1,1h-4v2h4c1.654,0 3,-1.346 3,-3c0,-1.654 -1.346,-3 -3,-3z" fill="#110c04"></path><rect x="23" y="8" width="2" height="2" fill="#000000"></rect><rect x="23" y="16" width="2" height="2" fill="#000000"></rect></g></g></svg>