<svg xmlns="http://www.w3.org/2000/svg" xmlns:xlink="http://www.w3.org/1999/xlink" viewBox="0,0,256,256" width="72px" height="72px" fill-rule="nonzero"><g fill="none" fill-rule="nonzero" stroke="none" stroke-width="1" stroke-linecap="butt" stroke-linejoin="miter" stroke-miterlimit="10" stroke-dasharray="" stroke-dashoffset="0" font-family="none" font-weight="none" font-size="none" text-anchor="none" style="mix-blend-mode: normal"><g transform="scale(0.5,0.5)"><g><path d="M386.18,425.22c2.73101,-29.77788 28.73987,-51.92624 58.57253,-49.8786c29.83267,2.04764 52.57145,27.54191 51.20825,57.41368c-1.3632,29.87177 -26.32949,53.18902 -56.22465,52.51099c-29.89517,-0.67803 -53.77864,-25.10322 -53.78613,-55.00607c0,-1.7 0.08,-3.38 0.23,-5.04z" fill="#87e680"></path><path d="M411.19,142.45l44.81,64.93h-89.61z" fill="#e9b44c"></path><path d="M310.98,188.68c-0.0422,14.11996 -5.45504,27.69495 -15.14,37.97c-10.02,10.49 -14.68,23.77 -12.82,37.98v0.23h-54.74c1.83107,-14.05601 -2.79319,-28.18609 -12.58,-38.44c-9.85663,-10.43104 -15.21253,-24.32189 -14.91,-38.67c0.47,-29.12 25.16,-53.81 54.28,-54.28c14.76536,-0.19346 28.99236,5.53852 39.49951,15.91412c10.50715,10.3756 16.41791,24.52926 16.41049,39.29588z" fill="#e9b44c"></path><path d="M305.11,425.51c0.13,1.56 0.2,3.15 0.2,4.75c0,30.38947 -24.63553,55.025 -55.025,55.025c-30.38947,0 -55.025,-24.63553 -55.025,-55.025c0,-1.7 0.08,-3.38 0.23,-5.04c2.60792,-28.37604 26.4471,-50.06703 54.94264,-49.99164c28.49553,0.07539 52.21962,21.8922 54.67736,50.28164z" fill="#ea5281"></path><path d="M145.61,164.86l-44.8,64.93l-44.81,-64.93z" fill="#e9b44c"></path><path d="M125.82,425.22c0.15,1.66 0.23,3.34 0.23,5.04c-0.00796,29.89236 -23.88331,54.30866 -53.76799,54.98622c-29.88468,0.67756 -54.84209,-22.63159 -56.20481,-52.49287c-1.36272,-29.86128 21.36796,-55.34667 51.19014,-57.39383c29.82218,-2.04716 55.82214,20.09309 58.55266,49.86048z" fill="#87e680"></path><path d="M360.191,210.633c1.20943,2.30443 3.59748,3.74766 6.2,3.747h35.835c-5.733,34.665 -24.164,66.115 -52.381,89.11c-27.316,22.262 -61.627,35.03 -94.134,35.03c-43.924,0 -90.51,-23.627 -118.685,-60.192c-2.37246,-3.0201 -6.73523,-3.56471 -9.77733,-1.22052c-3.0421,2.34419 -3.62738,6.70169 -1.31167,9.76552c15.89611,20.44459 36.22008,37.01962 59.444,48.479c22.666,11.232 46.985,17.169 70.33,17.169c35.673,0 73.207,-13.915 102.979,-38.177c31.5,-25.67 51.86,-61.022 57.707,-99.963h39.603c2.60155,-0.00045 4.98825,-1.44361 6.19714,-3.74723c1.20889,-2.30361 1.04054,-5.08763 -0.43714,-7.22877l-44.81,-64.93c-1.30674,-1.89376 -3.46066,-3.02443 -5.7615,-3.02443c-2.30084,0 -4.45476,1.13068 -5.7615,3.02443l-44.8,64.93c-1.477,2.14118 -1.64491,4.9248 -0.436,7.228zM411.191,154.775l31.473,45.6h-62.939z" fill="#083863"></path><path d="M95.048,233.766c1.30667,1.89418 3.46085,3.02516 5.762,3.02516c2.30115,0 4.45533,-1.13098 5.762,-3.02516l44.8,-64.93c1.47778,-2.1413 1.64605,-4.92553 0.43691,-7.22922c-1.20914,-2.30368 -3.59618,-3.74671 -6.19791,-3.74678h-35.834c5.733,-34.665 24.164,-66.115 52.381,-89.11c27.316,-22.262 61.627,-35.03 94.134,-35.03c43.924,0 90.511,23.627 118.685,60.192c2.37246,3.0201 6.73523,3.56471 9.77733,1.22052c3.0421,-2.34419 3.62738,-6.70169 1.31167,-9.76552c-15.89584,-20.44486 -36.21988,-37.01994 -59.444,-48.479c-22.665,-11.232 -46.985,-17.169 -70.33,-17.169c-35.673,0 -73.207,13.915 -102.979,38.177c-31.5,25.67 -51.86,61.022 -57.707,99.962h-39.606c-2.60155,0.00045 -4.98825,1.44361 -6.19714,3.74723c-1.20889,2.30361 -1.04054,5.08763 0.43714,7.22877zM132.276,171.86l-31.468,45.6l-31.472,-45.6z" fill="#083863"></path><path d="M193.791,187.642c-0.35867,16.19009 5.69615,31.86576 16.845,43.611c6.83907,7.21933 10.76357,16.71481 11.017,26.656c-3.67426,0.43682 -6.37397,3.65773 -6.16214,7.3518c0.21183,3.69407 3.26202,6.58526 6.96214,6.5992h67.1c3.86599,0.02347 7.01903,-3.09151 7.0425,-6.9575c0.02347,-3.86599 -3.09151,-7.01903 -6.9575,-7.0425c0.163,-9.73 4,-18.768 11.331,-26.447c10.88386,-11.57388 16.9656,-26.84956 17.015,-42.737c-0.04057,-34.06551 -27.51658,-61.73917 -61.58093,-62.02388c-34.06435,-0.28472 -61.9991,26.9258 -62.60907,60.98588zM255.175,140.469c0.247,0 0.492,0 0.737,0c26.57726,0.06783 48.08243,21.63966 48.068,48.217c-0.04704,12.3177 -4.7643,24.15909 -13.2,33.135c-9.46632,9.63859 -14.88033,22.53753 -15.129,36.045h-40.008c-0.27724,-13.51894 -5.58076,-26.44976 -14.876,-36.27c-8.60573,-9.09063 -13.27077,-21.21349 -12.979,-33.728c0.412,-25.287 22.112,-46.991 47.387,-47.399z" fill="#083863"></path><path d="M235.5,281.16c-3.86599,0 -7,3.13401 -7,7c0,3.86599 3.13401,7 7,7h41c3.86599,0 7,-3.13401 7,-7c0,-3.86599 -3.13401,-7 -7,-7z" fill="#083863"></path><path d="M261.6,106.92v-22.83c0,-3.86599 -3.13401,-7 -7,-7c-3.86599,0 -7,3.13401 -7,7v22.83c0,3.86599 3.13401,7 7,7c3.86599,0 7,-3.13401 7,-7z" fill="#083863"></path><path d="M315.547,136.469l16.779,-15.85c2.81058,-2.65483 2.93683,-7.08542 0.282,-9.896c-2.65483,-2.81058 -7.08542,-2.93683 -9.896,-0.282l-16.779,15.85c-2.81058,2.65483 -2.93683,7.08542 -0.282,9.896c2.65483,2.81058 7.08542,2.93683 9.896,0.282z" fill="#083863"></path><path d="M189.465,108.056c-1.74809,-1.81705 -4.33832,-2.55356 -6.78092,-1.92811c-2.4426,0.62545 -4.3601,2.5162 -5.01978,4.94978c-0.65969,2.43358 0.04039,5.03389 1.83271,6.80733l16.079,16.31c1.74809,1.81705 4.33832,2.55356 6.78092,1.92811c2.4426,-0.62545 4.3601,-2.5162 5.01978,-4.94978c0.65969,-2.43358 -0.04039,-5.03389 -1.83271,-6.80733z" fill="#083863"></path><path d="M267.7,412.838c-1.31278,-1.31291 -3.09336,-2.05051 -4.95,-2.05051c-1.85664,0 -3.63722,0.7376 -4.95,2.05051l-7.513,7.513l-7.515,-7.515c-2.73381,-2.73381 -7.16619,-2.73381 -9.9,0c-2.73381,2.73381 -2.73381,7.16619 0,9.9l7.516,7.515l-7.514,7.513c-2.73381,2.73381 -2.73381,7.16619 0,9.9c2.73381,2.73381 7.16619,2.73381 9.9,0l7.517,-7.517l7.515,7.515c2.73381,2.73381 7.16619,2.73381 9.9,0c2.73381,-2.73381 2.73381,-7.16619 0,-9.9l-7.516,-7.515l7.518,-7.517c2.72647,-2.73502 2.72289,-7.1614 -0.008,-9.892z" fill="#083863"></path><path d="M86.932,412.728l-21.864,20.027l-9.531,-10.339c-2.62059,-2.84233 -7.04917,-3.02209 -9.8915,-0.4015c-2.84233,2.62059 -3.02209,7.04917 -0.4015,9.8915l14.261,15.47c2.61454,2.83606 7.03067,3.02254 9.875,0.417l27.01,-24.74c2.85117,-2.61175 3.04525,-7.04033 0.4335,-9.8915c-2.61175,-2.85117 -7.04033,-3.04525 -9.8915,-0.4335z" fill="#083863"></path><path d="M440.97,368.23c-29.62259,-0.00133 -55.10948,20.94918 -60.841,50.012l-68.946,0.246c-5.62573,-29.12882 -31.09212,-50.19459 -60.75915,-50.2599c-29.66704,-0.06531 -55.22593,20.88813 -60.97985,49.9919h-57.576c-6.3484,-32.3061 -36.81055,-54.03956 -69.42439,-49.53139c-32.61384,4.50818 -56.03798,33.69028 -53.38451,66.50713c2.65348,32.81684 30.46183,57.85644 63.37629,57.06619c32.91446,-0.79026 59.4891,-27.13555 60.5646,-60.04193h55.31c1.04194,33.42532 28.40234,60.00271 61.84382,60.07394c33.44148,0.07123 60.91485,-26.38936 62.09918,-59.80994l66.747,-0.238c1.09624,33.97449 29.33753,60.73497 63.32178,60.00156c33.98426,-0.73341 61.04476,-28.68734 60.67427,-62.67749c-0.37049,-33.99015 -28.03389,-61.3476 -62.02606,-61.34007zM71.03,478.28c-25.95136,0.00236 -47.21038,-20.61211 -48.00675,-46.55125c-0.79637,-25.93914 19.158,-47.81893 45.06063,-49.40857c25.90263,-1.58964 48.3827,17.68596 50.76412,43.52782c0.134,1.484 0.2,2.968 0.2,4.412c-0.02921,26.50783 -21.51018,47.98969 -48.018,48.02zM250.29,478.28c-26.51114,-0.027 -47.99748,-21.50886 -48.03,-48.02c0,-1.446 0.068,-2.929 0.2,-4.408c2.15207,-24.77698 22.96009,-43.75435 47.83,-43.622c24.86247,0.12945 45.56496,19.11196 47.845,43.87c0.116,1.393 0.175,2.792 0.175,4.161c-0.03031,26.50799 -21.51201,47.98924 -48.02,48.019zM440.97,478.28c-26.50838,-0.02976 -47.99024,-21.51162 -48.02,-48.02c0,-1.444 0.067,-2.928 0.2,-4.408c2.37929,-25.84237 24.85823,-45.11994 50.76127,-43.53201c25.90304,1.58792 45.85899,23.46686 45.06392,49.40634c-0.79507,25.93948 -22.05353,46.55515 -48.00519,46.55367z" fill="#083863"></path><path d="M456.883,412.728l-21.865,20.027l-9.531,-10.339c-1.68562,-1.87619 -4.25022,-2.70051 -6.71332,-2.15781c-2.4631,0.5427 -4.4438,2.36849 -5.18485,4.77935c-0.74105,2.41086 -0.12784,5.03396 1.60517,6.86646l14.26,15.47c2.61416,2.83569 7.02954,3.02261 9.874,0.418l27.011,-24.74c2.85089,-2.6112 3.0452,-7.03911 0.434,-9.89c-2.6112,-2.85089 -7.03911,-3.0452 -9.89,-0.434z" fill="#083863"></path></g></g></g></svg>