<svg xmlns="http://www.w3.org/2000/svg" xmlns:xlink="http://www.w3.org/1999/xlink" viewBox="0,0,256,256" width="72px" height="72px" fill-rule="nonzero"><g fill="none" fill-rule="nonzero" stroke="none" stroke-width="1" stroke-linecap="butt" stroke-linejoin="miter" stroke-miterlimit="10" stroke-dasharray="" stroke-dashoffset="0" font-family="none" font-weight="none" font-size="none" text-anchor="none" style="mix-blend-mode: normal"><g transform="scale(0.5,0.5)"><g><path d="M405,58.22v296c-3.21651,-0.41748 -6.45651,-0.62791 -9.7,-0.63c-36.67333,-0.06515 -67.81493,26.84367 -73.07028,63.13855c-5.25536,36.29489 16.97467,70.93171 52.16028,81.27145c-5.31342,1.99531 -10.9443,3.01172 -16.62,3h-267.55c-26.0805,-0.00552 -47.22,-21.1495 -47.22,-47.23v-335.69l107.08,-107.08h207.69c26.0805,0 47.22448,21.1395 47.23,47.22z" fill="#f7f5fb"></path><path d="M202.41,501h-112.19c-26.0805,-0.00552 -47.22,-21.1495 -47.22,-47.23v-168.77c32.51144,85.1534 87.62441,159.83128 159.41,216z" fill="#e4e3e8"></path><path d="M365.87,67.82v88.36c0,12.70255 -10.29745,23 -23,23h-233.03c-12.70255,0 -23,-10.29745 -23,-23v-37.18h16.9c12.52964,0.00796 24.54897,-4.96316 33.41251,-13.8192c8.86354,-8.85604 13.84484,-20.87116 13.84749,-33.4008v-26.92h191.9c12.67523,0.01651 22.94797,10.28478 22.97,22.96z" fill="#4a5058"></path><path d="M142.57,218.51v0c-1.75164,-1.75197 -4.12757,-2.73625 -6.605,-2.73625c-2.47743,0 -4.85336,0.98427 -6.605,2.73625l-24.6,24.6c-0.78214,0.78286 -1.84338,1.22273 -2.95,1.22273c-1.10662,0 -2.16786,-0.43987 -2.95,-1.22273l-8,-8c-3.65107,-3.64947 -9.56893,-3.64947 -13.22,0v0c-3.64947,3.65107 -3.64947,9.56893 0,13.22l15.15,15.15c4.95045,4.9437 12.96955,4.9437 17.92,0l31.82,-31.79c3.63399,-3.63544 3.65185,-9.52257 0.04,-13.18z" fill="#4a5058"></path><rect x="186.13" y="217.5" width="179" height="48" rx="12.67" ry="12.67" fill="#4a5058"></rect><path d="M142.57,298.51v0c-1.75164,-1.75197 -4.12757,-2.73625 -6.605,-2.73625c-2.47743,0 -4.85336,0.98427 -6.605,2.73625l-24.6,24.6c-0.78214,0.78286 -1.84338,1.22273 -2.95,1.22273c-1.10662,0 -2.16786,-0.43987 -2.95,-1.22273l-8,-8c-3.65107,-3.64947 -9.56893,-3.64947 -13.22,0v0c-3.64947,3.65107 -3.64947,9.56893 0,13.22l15.15,15.15c4.95045,4.9437 12.96955,4.9437 17.92,0l31.82,-31.79c3.63399,-3.63544 3.65185,-9.52257 0.04,-13.18z" fill="#4a5058"></path><rect x="186.13" y="297.5" width="179" height="48" rx="12.67" ry="12.67" fill="#4a5058"></rect><path d="M142.57,378.51v0c-1.75164,-1.75197 -4.12757,-2.73625 -6.605,-2.73625c-2.47743,0 -4.85336,0.98427 -6.605,2.73625l-24.6,24.6c-0.78214,0.78286 -1.84338,1.22273 -2.95,1.22273c-1.10662,0 -2.16786,-0.43987 -2.95,-1.22273l-8,-8c-3.65107,-3.64947 -9.56893,-3.64947 -13.22,0v0c-3.64947,3.65107 -3.64947,9.56893 0,13.22l15.15,15.15c4.95045,4.9437 12.96955,4.9437 17.92,0l31.82,-31.79c3.63399,-3.63544 3.65185,-9.52257 0.04,-13.18z" fill="#4a5058"></path><path d="M341,377.5c-12.06593,13.11951 -18.94716,30.18041 -19.36,48h-122.85c-6.99745,0 -12.67,-5.67255 -12.67,-12.67v-22.67c0,-3.35937 1.33519,-6.58101 3.71156,-8.95551c2.37637,-2.3745 5.59906,-3.70714 8.95844,-3.70449z" fill="#4a5058"></path><path d="M151,11v60.77c0.00265,12.52699 -4.9725,24.54166 -13.83042,33.39958c-8.85792,8.85792 -20.8726,13.83307 -33.39958,13.83042h-60.77v-0.92l107.08,-107.08z" fill="#cfdce5"></path><circle cx="395.3" cy="427.3" r="73.7" fill="#e9b44c"></circle><path d="M432.33,409.66h-19.33v-19.38c0.15247,-6.4041 -3.17691,-12.38806 -8.699,-15.63494c-5.52209,-3.24687 -12.36991,-3.24687 -17.892,0c-5.52209,3.24687 -8.85147,9.23084 -8.699,15.63494v19.38h-19.43c-9.74392,0 -17.64448,7.89608 -17.65,17.64v0c-0.01329,4.68973 1.8404,9.19193 5.15185,12.51277c3.31146,3.32084 7.8084,5.18725 12.49815,5.18723h19.38v19.38c0.22811,9.58144 8.06084,17.22991 17.645,17.22991c9.58416,0 17.41689,-7.64847 17.645,-17.22991v-19.38h19.38c4.69321,0.00534 9.1953,-1.85873 12.51109,-5.18014c3.31579,-3.32142 5.17221,-7.82666 5.15891,-12.51986v0c0.00001,-4.68362 -1.86261,-9.17498 -5.17724,-12.48398c-3.31463,-3.30901 -7.80915,-5.16398 -12.49276,-5.15602z" fill="#f7f5fb"></path><path d="M117.68,416.58l-6.94,6.93c-4.94702,4.94255 -12.96298,4.94255 -17.91,0l-15.16,-15.15c-3.52139,-3.67198 -3.46054,-9.48559 0.13694,-13.08306c3.59747,-3.59747 9.41108,-3.65832 13.08306,-0.13694l8,8c0.78214,0.78286 1.84338,1.22273 2.95,1.22273c1.10662,0 2.16786,-0.43987 2.95,-1.22273l1.52,-1.52c3.69333,5.05333 7.48333,10.04 11.37,14.96z" fill="#3f4449"></path></g></g></g></svg>